<svg width="236" height="241" viewBox="0 0 236 241" fill="none" xmlns="http://www.w3.org/2000/svg">
<path d="M170.09 108.25C170.09 108.25 149.26 115.54 157.32 144.05C161.56 159.05 181.64 154.43 181.64 154.43L175.89 148.43L170.09 108.25Z" fill="#F4A28C"/>
<path opacity="0.08" d="M170.09 108.25C170.09 108.25 149.26 115.54 157.32 144.05C161.56 159.05 181.64 154.43 181.64 154.43L175.89 148.43L170.09 108.25Z" fill="black"/>
<path d="M69.82 93.6298C69.2342 92.9091 68.4725 92.3517 67.6084 92.0114C66.7443 91.6711 65.8071 91.5593 64.8872 91.687C63.9673 91.8147 63.0959 92.1774 62.3572 92.7402C61.6184 93.303 61.0373 94.0468 60.67 94.8998C58.67 99.6598 57.23 106.45 60.5 113.39C66.5 126.2 75.06 135.74 83.92 124.57C92.78 113.4 91.7 99.8398 91.7 99.8398C91.7 99.8398 91.75 91.8398 88.14 92.3398C84.53 92.8398 88.14 99.6898 88.14 99.6898L77.8 118.11C78.1477 109.259 75.3171 100.575 69.82 93.6298Z" fill="#F4A28C"/>
<path opacity="0.08" d="M69.82 93.6298C69.2342 92.9091 68.4725 92.3517 67.6084 92.0114C66.7443 91.6711 65.8071 91.5593 64.8872 91.687C63.9673 91.8147 63.0959 92.1774 62.3572 92.7402C61.6184 93.303 61.0373 94.0468 60.67 94.8998C58.67 99.6598 57.23 106.45 60.5 113.39C66.5 126.2 75.06 135.74 83.92 124.57C92.78 113.4 91.7 99.8398 91.7 99.8398C91.7 99.8398 91.75 91.8398 88.14 92.3398C84.53 92.8398 88.14 99.6898 88.14 99.6898L77.8 118.11C78.1477 109.259 75.3171 100.575 69.82 93.6298Z" fill="black"/>
<path opacity="0.45" d="M118.19 240.73C183.21 240.73 235.92 235.317 235.92 228.64C235.92 221.963 183.21 216.55 118.19 216.55C53.1695 216.55 0.459991 221.963 0.459991 228.64C0.459991 235.317 53.1695 240.73 118.19 240.73Z" fill="#E6E6E6"/>
<path d="M117.66 44.5201C118.669 46.3557 119.423 48.3206 119.9 50.3601C119.941 50.6058 119.934 50.8572 119.878 51.1C119.822 51.3427 119.718 51.572 119.573 51.7746C119.428 51.9772 119.245 52.1491 119.033 52.2805C118.821 52.4119 118.586 52.5001 118.34 52.5401C117.557 52.7212 116.738 52.6722 115.983 52.399C115.227 52.1258 114.566 51.64 114.08 51.0001L111.73 48.4501C111.309 47.8898 111.073 47.212 111.055 46.5111C111.037 45.8103 111.238 45.1213 111.63 44.5401C113 42.2701 116.66 42.4601 117.66 44.5201Z" fill="#F4A28C"/>
<path d="M113.09 47.8398L112.24 60.1498L119.06 60.1398L116.94 51.1798L113.09 47.8398Z" fill="#F4A28C"/>
<path d="M116.87 44.9998C115.825 45.5123 114.725 45.9016 113.59 46.1598C114.114 46.4926 114.528 46.9732 114.779 47.541C115.03 48.1088 115.107 48.7382 115 49.3498C114.912 49.9375 114.623 50.4765 114.181 50.8743C113.74 51.272 113.174 51.5038 112.58 51.5298L110.69 47.0798C110.396 46.4536 110.277 45.7594 110.345 45.0709C110.414 44.3825 110.668 43.7255 111.08 43.1698C111.438 42.6867 111.826 42.2259 112.24 41.7898C113.29 40.7198 115.53 40.7898 116.3 39.3798C116.381 39.2451 116.495 39.1338 116.632 39.0564C116.769 38.9791 116.923 38.9385 117.08 38.9385C117.237 38.9385 117.391 38.9791 117.528 39.0564C117.665 39.1338 117.779 39.2451 117.86 39.3798C118.65 40.6398 119.34 42.8698 117.86 44.3798C117.567 44.64 117.232 44.8495 116.87 44.9998V44.9998Z" fill="#24285B"/>
<path d="M115.3 49.0901C115.3 49.0901 114.69 47.7701 113.74 48.3201C112.79 48.8701 113.66 50.7601 115.09 50.3201L115.3 49.0901Z" fill="#F4A28C"/>
<path d="M118.7 46.6602L120.24 47.5702C120.323 47.6249 120.39 47.6992 120.437 47.7864C120.484 47.8737 120.508 47.9711 120.508 48.0702C120.508 48.1692 120.484 48.2666 120.437 48.3539C120.39 48.4411 120.323 48.5154 120.24 48.5702L119.03 49.4002L118.7 46.6602Z" fill="#F4A28C"/>
<path opacity="0.31" d="M117.49 53.12C116.626 52.9829 115.823 52.5931 115.18 52C115.599 53.7458 116.673 55.2637 118.18 56.24L117.49 53.12Z" fill="#CE8172"/>
<path d="M54.19 71.88C55.1944 73.7177 55.9478 75.6819 56.43 77.72C56.4715 77.9656 56.464 78.2171 56.4079 78.4598C56.3518 78.7025 56.2483 78.9318 56.1034 79.1344C55.9584 79.337 55.7748 79.5089 55.5631 79.6403C55.3514 79.7717 55.1159 79.86 54.87 79.9C54.0851 80.0815 53.2644 80.0306 52.508 79.7536C51.7515 79.4766 51.092 78.9854 50.61 78.34L48.25 75.79C47.8315 75.2284 47.5971 74.551 47.5792 73.8509C47.5613 73.1507 47.7607 72.4622 48.15 71.88C49.48 69.63 53.18 69.81 54.19 71.88Z" fill="#F4A28C"/>
<path d="M49.62 75.2002L48.77 87.5102L55.59 87.5002L53.47 78.5402L49.62 75.2002Z" fill="#F4A28C"/>
<path d="M55.22 74L56.77 74.9C56.8525 74.9547 56.9202 75.029 56.967 75.1163C57.0138 75.2035 57.0383 75.301 57.0383 75.4C57.0383 75.499 57.0138 75.5965 56.967 75.6837C56.9202 75.771 56.8525 75.8453 56.77 75.9L55.57 76.73L55.22 74Z" fill="#F4A28C"/>
<path opacity="0.31" d="M54 80.4801C53.138 80.3441 52.3348 79.9581 51.69 79.3701C52.1168 81.1125 53.189 82.6279 54.69 83.6101L54 80.4801Z" fill="#CE8172"/>
<path d="M183 89.6299C181.996 91.4677 181.242 93.4318 180.76 95.4699C180.719 95.7156 180.726 95.967 180.782 96.2097C180.838 96.4525 180.942 96.6817 181.087 96.8843C181.232 97.0869 181.415 97.2589 181.627 97.3902C181.839 97.5216 182.074 97.6099 182.32 97.6499C183.105 97.8275 183.924 97.7748 184.68 97.4981C185.436 97.2214 186.095 96.7324 186.58 96.0899L188.94 93.5299C189.358 92.9694 189.591 92.293 189.607 91.5942C189.623 90.8955 189.421 90.209 189.03 89.6299C187.75 87.3699 184 87.5599 183 89.6299Z" fill="#F4A28C"/>
<path d="M187.61 92.9399L188.46 105.26L181.64 105.24L183.76 96.2899L187.61 92.9399Z" fill="#F4A28C"/>
<path d="M182 91.77L180.45 92.67C180.37 92.7262 180.304 92.8011 180.258 92.8881C180.213 92.9752 180.189 93.0719 180.189 93.17C180.189 93.2682 180.213 93.3649 180.258 93.4519C180.304 93.539 180.37 93.6138 180.45 93.67L181.66 94.5L182 91.77Z" fill="#F4A28C"/>
<path opacity="0.31" d="M183.21 98.2299C184.075 98.0884 184.881 97.6994 185.53 97.1099C185.103 98.8522 184.031 100.368 182.53 101.35L183.21 98.2299Z" fill="#CE8172"/>
<path d="M49.65 79.3702L46.8 75.5402C46.8 75.5402 42.8 74.6402 43.86 72.5402C44.92 70.4402 47.39 71.2302 46.67 68.8802C45.95 66.5302 49 66.0002 50.16 67.3702C51.32 68.7402 51.52 67.6602 53.05 67.2002C54.58 66.7402 56.62 67.9602 55.88 69.8302C55.14 71.7002 51.14 73.7502 51.14 73.7502C51.14 73.7502 53.99 75.8502 51.44 78.1802L49.65 79.3702Z" fill="#24285B"/>
<path d="M119.98 14.6602H117.47V22.4402H119.98V14.6602Z" fill="#FFD200"/>
<path d="M110.689 0.855957L127.877 1.49823L127.541 10.492C127.48 12.1325 126.769 13.6815 125.566 14.7982C124.363 15.9149 122.765 16.5078 121.124 16.4465L116.308 16.2665C114.667 16.2052 113.118 15.4947 112.001 14.2913C110.885 13.0879 110.292 11.4902 110.353 9.84968L110.689 0.855957V0.855957Z" fill="#FFD200"/>
<path d="M123.49 20.46H114.42V27.3H123.49V20.46Z" fill="#24285B"/>
<path opacity="0.13" d="M121.39 22.0498H116.53V25.7198H121.39V22.0498Z" fill="white"/>
<path d="M117.79 12.5698H109.51C108.25 12.5698 107.042 12.0694 106.151 11.1786C105.26 10.2878 104.76 9.0796 104.76 7.81982C104.76 6.56005 105.26 5.35186 106.151 4.46107C107.042 3.57027 108.25 3.06982 109.51 3.06982H117.79V12.5698ZM109.51 4.19983C108.584 4.24854 107.712 4.65065 107.074 5.32325C106.436 5.99585 106.08 6.88767 106.08 7.81482C106.08 8.74198 106.436 9.6338 107.074 10.3064C107.712 10.979 108.584 11.3811 109.51 11.4298H116.66V4.19983H109.51Z" fill="#FFD200"/>
<path d="M129.52 12.5698H121.24V3.06982H129.52C130.78 3.06982 131.988 3.57027 132.879 4.46107C133.77 5.35186 134.27 6.56005 134.27 7.81982C134.27 9.0796 133.77 10.2878 132.879 11.1786C131.988 12.0694 130.78 12.5698 129.52 12.5698V12.5698ZM122.38 11.4298H129.52C130.446 11.3811 131.318 10.979 131.956 10.3064C132.594 9.6338 132.95 8.74198 132.95 7.81482C132.95 6.88767 132.594 5.99585 131.956 5.32325C131.318 4.65065 130.446 4.24854 129.52 4.19983H122.38V11.4298Z" fill="#FFD200"/>
<path opacity="0.43" d="M112.5 3.99997C112.16 6.49997 111.93 11.86 115.68 14C115.782 14.0582 115.901 14.0814 116.017 14.066C116.134 14.0507 116.243 13.9977 116.326 13.9151C116.41 13.8324 116.465 13.7247 116.481 13.6082C116.498 13.4918 116.477 13.373 116.42 13.27C114.885 10.4617 114.44 7.18595 115.17 4.06997C115.206 3.89807 115.203 3.72014 115.161 3.5496C115.119 3.37907 115.038 3.2204 114.925 3.08557C114.813 2.95074 114.671 2.84327 114.51 2.77127C114.35 2.69927 114.176 2.66463 114 2.66997C113.632 2.67403 113.277 2.81077 113.002 3.05508C112.726 3.29938 112.548 3.63488 112.5 3.99997V3.99997Z" fill="white"/>
<path d="M205.76 199.71H147.34V226.1H205.76V199.71Z" fill="#B2B2B2"/>
<path d="M89.82 182.78H31.4V226.1H89.82V182.78Z" fill="#C9C9C9"/>
<path d="M148.24 166.42H89.82V226.1H148.24V166.42Z" fill="#E6E6E6"/>
<path d="M110.82 24.4501C110.82 24.4501 112.09 19.2001 114.35 22.6201C116.61 26.0401 114.18 28.7701 112.75 28.9401C111.32 29.1101 92.26 40.2601 92.94 50.0901C93.62 59.9201 114.59 64.0901 106.76 78.0901C98.93 92.0901 83.24 67.4001 82.05 59.5701C80.86 51.7401 77.8 35.0001 110.82 24.4501Z" fill="#F4A28C"/>
<path d="M126.43 25.3C126.43 25.3 125.15 20.04 122.9 23.47C120.65 26.9 123.07 29.61 124.49 29.78C125.91 29.95 145 41.1 144.3 50.93C143.6 60.76 123.19 63.34 131 77.29C138.81 91.24 154 68.29 155.18 60.42C156.36 52.55 159.45 35.8 126.43 25.3Z" fill="#F4A28C"/>
<path d="M112.24 60.1499H119.06C119.06 60.1499 143.01 60.7699 141.21 79.8399C139.41 98.9099 129.21 114.9 129.21 114.9L104.62 113.5C104.62 113.5 77.92 60.9099 112.24 60.1499Z" fill="#54C27A"/>
<path d="M112.45 57.1699C112.45 57.1699 106.9 59.5699 109.11 66.7199C111.32 73.8699 116.5 80.5299 116.5 80.5299L118.7 79.7599C118.7 79.7599 108.33 65.5899 112.24 60.1499L112.45 57.1699Z" fill="#24285B"/>
<path d="M118.32 57C118.32 57 122.98 57.78 121.95 66.7C121.4 71.2654 120.312 75.7498 118.71 80.06L116.42 79.95C116.42 79.95 119.93 68.61 118.82 60.13L118.32 57Z" fill="#24285B"/>
<path d="M119.28 88.03C122.246 88.03 124.65 85.6258 124.65 82.66C124.65 79.6943 122.246 77.29 119.28 77.29C116.314 77.29 113.91 79.6943 113.91 82.66C113.91 85.6258 116.314 88.03 119.28 88.03Z" fill="#FFD200"/>
<path d="M104.61 113.49L108.61 161.92H112.34L114.16 130.53C114.272 128.554 114.855 126.634 115.861 124.929C116.866 123.224 118.265 121.784 119.94 120.73L129.22 114.89L104.61 113.49Z" fill="#F4A28C"/>
<path d="M129.2 114.89L134.27 161.92H130.25L118.19 118.71L129.2 114.89Z" fill="#F4A28C"/>
<path d="M104.61 113.49L102.89 132.31L115.65 133.33L118.02 126.35L119.26 133.33H133.36L129.2 114.89L104.61 113.49Z" fill="#24285B"/>
<path d="M108.59 161.92C108.59 161.92 101.7 164.1 102.89 166.42H112.89L112.28 161.92H108.59Z" fill="#54C27A"/>
<path d="M133.82 161.92C133.82 161.92 140.71 164.1 139.52 166.42H129.47L130.08 161.92H133.82Z" fill="#54C27A"/>
<path d="M48.77 87.5098H55.59C55.59 87.5098 74.38 87.5098 74.12 106.62C73.86 125.73 67.32 135.22 67.32 135.22H42.8C42.8 135.22 12 91.9998 48.77 87.5098Z" fill="#54C27A"/>
<path d="M53 76.2799C53 76.2799 52.39 74.9699 51.44 75.5099C50.49 76.0499 51.36 77.9599 52.79 77.5099L53 76.2799Z" fill="#F4A28C"/>
<path opacity="0.08" d="M43.21 95.5098C43.21 95.5098 50.55 106.06 51.98 114.89C53.41 123.72 58.98 111.35 58.98 111.35L62.05 102.43C62.05 102.43 69.33 105.34 64.84 112.9C60.35 120.46 55.43 128.83 60.19 135.2H42.8C42.8 135.2 41.27 133.02 40.57 131.79C39.87 130.56 43.21 95.5098 43.21 95.5098Z" fill="black"/>
<path d="M49 84.7402C49 84.7402 43.82 87.2902 46 94.4302C48.18 101.57 53.38 108.25 53.38 108.25L55.58 107.48C55.58 107.48 45.1 92.9302 49.01 87.4802L49 84.7402Z" fill="#24285B"/>
<path d="M54.9 84.6099C54.9 84.6099 59.9 85.5199 58.82 94.4299C58.2767 98.9987 57.1924 103.487 55.59 107.8L53.3 107.68C53.3 107.68 56.81 96.3399 55.69 87.8699L54.9 84.6099Z" fill="#24285B"/>
<path d="M54.81 115.86C57.7758 115.86 60.18 113.456 60.18 110.49C60.18 107.524 57.7758 105.12 54.81 105.12C51.8442 105.12 49.44 107.524 49.44 110.49C49.44 113.456 51.8442 115.86 54.81 115.86Z" fill="#FFD200"/>
<path d="M43.21 95.5101C42.8808 94.6409 42.3328 93.8715 41.6191 93.2761C40.9053 92.6808 40.05 92.2798 39.1359 92.1118C38.2218 91.9439 37.2798 92.0147 36.4011 92.3175C35.5224 92.6203 34.7367 93.1447 34.12 93.8401C30.73 97.7301 27.24 103.72 28.12 111.34C29.82 125.34 34.93 137.14 46.84 129.34C58.75 121.54 62 108.26 62 108.26C62 108.26 64.55 100.71 61 100.03C57.45 99.3501 58.72 107.03 58.72 107.03L43.12 121.28C46.2291 112.977 46.2611 103.835 43.21 95.5101V95.5101Z" fill="#F4A28C"/>
<path d="M42.8 135.2L46.89 180.14H50.51L54.66 145.41L67.31 135.2H42.8Z" fill="#F4A28C"/>
<path d="M67.31 135.2L74.13 180.14H70.04L57.07 140.31L67.31 135.2Z" fill="#F4A28C"/>
<path d="M42.8 135.2V154.09L56.46 153.07L57.07 145.92L67.31 135.2H42.8Z" fill="#24285B"/>
<path d="M57.07 142.86L58.97 152.9L72.59 151.88L67.31 135.2L57.07 142.86Z" fill="#24285B"/>
<path d="M50.45 178.26C50.45 178.26 57.34 180.44 56.15 182.76H46.15L46.76 178.26H50.45Z" fill="#54C27A"/>
<path d="M73.29 178.26C73.29 178.26 80.18 180.44 78.99 182.76H69L69.61 178.26H73.29Z" fill="#54C27A"/>
<path d="M188.64 104.45H181.82C181.82 104.45 163.02 104.45 163.28 123.56C163.54 142.67 170.09 152.16 170.09 152.16H194.6C194.6 152.16 225.41 109 188.64 104.45Z" fill="#54C27A"/>
<path d="M188.14 101.67C188.14 101.67 193.22 104.41 190.73 111.47C188.24 118.53 182.82 125 182.82 125L180.65 124.14C180.65 124.14 191.65 110.01 187.99 104.43L188.14 101.67Z" fill="#24285B"/>
<path d="M182.56 101.35C182.56 101.35 177.21 102.03 177.9 110.98C178.271 115.562 179.184 120.083 180.62 124.45H182.91C182.91 124.45 178.91 111.26 181.82 104.45L182.56 101.35Z" fill="#24285B"/>
<path d="M181.29 132.54C184.256 132.54 186.66 130.136 186.66 127.17C186.66 124.204 184.256 121.8 181.29 121.8C178.324 121.8 175.92 124.204 175.92 127.17C175.92 130.136 178.324 132.54 181.29 132.54Z" fill="#FFD200"/>
<path d="M194.6 152.14L190.51 197.08H186.89L182.74 162.35L170.09 152.14H194.6Z" fill="#F4A28C"/>
<path d="M170.09 152.14L163.28 197.08H167.36L180.34 157.25L170.09 152.14Z" fill="#F4A28C"/>
<path d="M194.6 152.14V171.03L180.95 170.01L180.34 162.86L170.09 152.14H194.6Z" fill="#24285B"/>
<path opacity="0.08" d="M191.47 115.88C191.47 115.88 188.35 122.64 194.6 130.17C200.85 137.7 180.38 152.17 180.38 152.17H193.83L205.06 141.17L206.34 126.62L191.47 115.88Z" fill="black"/>
<path d="M180.34 159.8L178.44 169.84L164.81 168.82L170.09 152.14L180.34 159.8Z" fill="#24285B"/>
<path d="M187 195.2C187 195.2 180.11 197.38 181.3 199.7H191.3L190.69 195.2H187Z" fill="#54C27A"/>
<path d="M164.12 195.2C164.12 195.2 157.22 197.38 158.41 199.7H168.46L167.85 195.2H164.12Z" fill="#54C27A"/>
<path d="M186 85.1099C185.478 85.0146 184.941 85.0592 184.442 85.2393C183.943 85.4193 183.501 85.7283 183.161 86.1348C182.82 86.5414 182.594 87.0308 182.504 87.5535C182.414 88.0761 182.465 88.6131 182.65 89.1099C182.953 89.7311 183.457 90.2316 184.08 90.5299C186.74 91.8699 183.43 94.7299 187.86 95.9499C187.86 95.9499 192.86 93.7199 191.08 90.7899C191.08 90.7899 191.65 86.3199 188.85 85.7899C187.73 85.5499 186.79 85.2699 186 85.1099Z" fill="#24285B"/>
<path d="M185.4 94.1901C185.4 94.1901 186.01 92.8801 186.96 93.4201C187.91 93.9601 187.04 95.8701 185.61 95.4201L185.4 94.1901Z" fill="#F4A28C"/>
<path d="M192 111.93C192.264 111.037 192.735 110.219 193.374 109.541C194.013 108.864 194.802 108.346 195.678 108.029C196.554 107.713 197.492 107.607 198.417 107.72C199.341 107.833 200.226 108.162 201 108.68C206.69 112.43 214.69 119.41 215.18 129.22C215.95 144.54 193.86 153.6 193.86 153.6C193.86 153.6 193.96 158.92 191.61 158.37C189.26 157.82 191.06 150.45 191.06 150.45C191.06 150.45 204.84 139.9 202.16 131.94C199.83 125.25 189 121.93 192 111.93Z" fill="#F4A28C"/>
<path opacity="0.34" d="M120.121 199.88H117.977V191.617L115.419 192.411V190.668L119.891 189.066H120.121V199.88Z" fill="black"/>
<path opacity="0.34" d="M63.1964 209.88H55.7943V208.411L59.2877 204.688C59.7673 204.164 60.1209 203.706 60.3483 203.316C60.5807 202.925 60.6969 202.554 60.6969 202.203C60.6969 201.724 60.5758 201.348 60.3335 201.076C60.0912 200.799 59.7451 200.661 59.2951 200.661C58.8105 200.661 58.4273 200.829 58.1455 201.165C57.8686 201.496 57.7301 201.934 57.7301 202.478H55.5792C55.5792 201.82 55.7349 201.219 56.0465 200.675C56.3629 200.131 56.8079 199.706 57.3815 199.4C57.9551 199.088 58.6053 198.932 59.3322 198.932C60.4447 198.932 61.3076 199.199 61.9207 199.733C62.5388 200.267 62.8478 201.022 62.8478 201.996C62.8478 202.53 62.7094 203.074 62.4325 203.627C62.1556 204.181 61.6809 204.826 61.0084 205.563L58.5534 208.152H63.1964V209.88Z" fill="black"/>
<path opacity="0.34" d="M173.765 210.781H174.907C175.451 210.781 175.854 210.645 176.116 210.373C176.378 210.101 176.509 209.74 176.509 209.29C176.509 208.855 176.378 208.516 176.116 208.274C175.859 208.032 175.503 207.911 175.048 207.911C174.638 207.911 174.294 208.024 174.017 208.252C173.74 208.474 173.602 208.766 173.602 209.127H171.458C171.458 208.563 171.609 208.059 171.911 207.614C172.217 207.164 172.642 206.813 173.186 206.561C173.735 206.308 174.338 206.182 174.996 206.182C176.138 206.182 177.033 206.457 177.681 207.006C178.329 207.55 178.653 208.301 178.653 209.26C178.653 209.755 178.502 210.21 178.2 210.625C177.899 211.041 177.503 211.359 177.014 211.582C177.622 211.8 178.074 212.126 178.371 212.561C178.672 212.996 178.823 213.51 178.823 214.104C178.823 215.063 178.472 215.832 177.77 216.41C177.073 216.989 176.148 217.278 174.996 217.278C173.918 217.278 173.036 216.994 172.348 216.425C171.666 215.857 171.325 215.105 171.325 214.171H173.468C173.468 214.576 173.619 214.907 173.921 215.164C174.227 215.422 174.603 215.55 175.048 215.55C175.557 215.55 175.955 215.417 176.242 215.15C176.534 214.878 176.68 214.519 176.68 214.074C176.68 212.996 176.086 212.457 174.9 212.457H173.765V210.781Z" fill="black"/>
</svg>
